<?xml version="1.0" encoding="utf-8" ?>
<svg baseProfile="full" height="568" version="1.1" width="664" xmlns="http://www.w3.org/2000/svg" xmlns:ev="http://www.w3.org/2001/xml-events" xmlns:xlink="http://www.w3.org/1999/xlink"><defs /><polygon fill="black" points="407,112 406,113 408,115 408,116 412,120 412,121 415,124 415,347 412,350 412,351 413,352 414,352 417,355 418,355 422,359 423,359 426,362 427,362 431,366 432,366 435,369 436,369 440,373 441,373 445,377 446,377 449,380 450,380 453,383 454,383 458,387 459,387 461,389 463,389 463,387 464,386 464,292 465,291 466,292 466,295 467,296 467,299 468,300 468,302 469,303 469,305 470,306 470,309 471,310 471,312 472,313 472,315 473,316 473,318 474,319 474,322 475,323 475,325 476,326 476,327 477,328 477,331 478,332 478,335 479,336 479,338 480,339 480,340 481,341 481,344 482,345 482,348 483,349 483,351 484,352 484,353 485,354 485,357 486,358 486,361 487,362 487,363 488,364 488,367 489,368 489,370 490,371 490,374 491,375 491,376 492,377 492,380 493,381 493,383 494,384 494,408 492,410 492,413 494,415 495,415 499,419 500,419 504,423 505,423 508,426 509,426 512,429 513,429 517,433 518,433 522,437 523,437 527,441 528,441 531,444 532,444 536,448 537,448 541,452 542,452 545,455 546,455 550,459 552,459 552,458 551,457 551,454 550,453 550,451 549,450 549,445 548,444 548,123 552,119 552,118 556,114 556,112 495,112 494,113 494,203 493,204 491,202 491,200 490,199 490,196 489,195 489,193 488,192 488,190 487,189 487,187 486,186 486,184 485,183 485,181 484,180 484,178 483,177 483,175 482,174 482,171 481,170 481,169 480,168 480,166 479,165 479,162 478,161 478,159 477,158 477,157 476,156 476,154 475,153 475,150 474,149 474,147 473,146 473,145 472,144 472,141 471,140 471,138 470,137 470,135 469,134 469,133 468,132 468,129 467,128 467,126 466,125 466,123 465,122 465,120 464,119 464,113 463,112" /><polygon fill="black" points="262,112 259,115 259,116 255,120 255,121 251,125 251,126 248,129 248,231 249,232 250,232 251,233 252,233 253,234 254,234 256,236 257,236 258,237 259,237 260,238 261,238 263,240 264,240 265,241 266,241 267,242 268,242 270,244 271,244 272,245 273,245 275,247 276,247 277,248 278,248 279,249 280,249 282,251 283,251 284,252 285,252 286,253 287,253 289,255 290,255 291,256 292,256 293,257 294,257 296,259 297,259 298,260 299,260 300,261 301,261 302,262 303,262 305,264 306,264 307,265 308,265 309,266 310,266 311,267 312,267 314,269 315,269 316,270 317,270 318,271 319,271 321,273 322,273 323,274 324,274 326,276 327,276 329,278 329,328 328,329 327,329 322,324 321,324 315,318 314,318 307,311 306,311 301,306 300,306 299,305 299,296 248,296 248,342 253,347 254,347 257,350 258,350 262,354 263,354 267,358 268,358 272,362 273,362 276,365 277,365 282,370 283,370 286,373 287,373 291,377 292,377 296,381 297,381 301,385 302,385 305,388 306,388 310,392 311,391 312,391 314,389 315,389 317,387 318,387 320,385 321,385 324,382 325,382 326,381 327,381 330,378 331,378 332,377 333,377 336,374 337,374 339,372 340,372 342,370 343,370 344,369 345,369 348,366 349,366 351,364 352,364 354,362 355,362 357,360 358,360 360,358 361,358 363,356 364,356 366,354 367,354 369,352 370,352 373,349 374,349 376,347 377,347 379,345 380,345 382,343 383,343 384,342 384,252 382,250 381,250 379,248 377,248 376,247 375,247 373,245 372,245 371,244 370,244 369,243 368,243 367,242 366,242 365,241 364,241 363,240 362,240 361,239 360,239 358,237 357,237 356,236 354,236 352,234 351,234 350,233 349,233 348,232 347,232 345,230 344,230 343,229 341,229 339,227 338,227 337,226 336,226 335,225 334,225 333,224 332,224 331,223 330,223 329,222 328,222 327,221 326,221 324,219 323,219 322,218 321,218 320,217 319,217 318,216 317,216 316,215 315,215 314,214 313,214 312,213 311,213 309,211 308,211 307,210 305,210 303,208 302,208 301,207 300,207 299,206 299,164 300,163 328,163 329,164 329,179 384,179 384,134 383,133 383,132 382,131 382,130 378,126 378,125 372,119 372,118 368,114 368,113 367,113 366,112" /><polygon fill="black" points="71,108 71,110 76,115 76,116 79,119 79,458 78,459 78,461 77,462 77,463 76,464 77,464 78,463 79,463 83,459 84,459 88,455 89,455 93,451 94,451 98,447 99,447 103,443 104,443 107,440 108,440 112,436 113,436 118,431 119,431 122,428 123,428 128,423 129,423 133,419 134,419 138,415 139,415 143,411 144,411 148,407 149,407 153,403 154,403 158,399 159,399 162,396 163,396 167,392 168,392 173,387 174,387 177,384 178,384 182,380 183,380 183,379 184,378 185,378 188,375 189,375 193,371 194,371 198,367 199,367 203,363 204,363 208,359 209,359 213,355 214,355 216,353 216,237 215,237 214,236 213,237 148,237 147,236 146,236 145,237 144,237 144,290 145,291 160,291 161,292 161,315 158,318 157,318 154,321 153,321 150,324 149,324 147,326 146,326 143,329 142,329 139,332 138,332 136,334 135,334 132,337 131,337 130,336 130,163 131,162 159,162 161,164 161,173 216,173 216,127 214,125 213,125 212,124 211,124 209,122 208,122 207,121 206,121 204,119 203,119 202,118 201,118 200,117 199,117 197,115 196,115 195,114 194,114 192,112 191,112 189,110 188,110 187,109 186,109 185,108" /></svg>